<svg width="75" height="73" viewBox="0 0 75 73" fill="none" xmlns="http://www.w3.org/2000/svg">
<path fill-rule="evenodd" clip-rule="evenodd" d="M49.9451 35.0307L53.2292 31.8349L54.2146 35.9898L49.9451 35.0307ZM38.7696 24.587L37.5266 23.3772L33.7968 19.7468L32.5538 18.537L24.8594 11.0478L28.5884 7.41742L36.2828 14.9066L37.5266 16.1165L41.2556 19.7468L42.4986 20.9567L52.2086 30.4078L48.4797 34.0382L38.7696 24.587ZM26.4479 34.1597L23.5022 35.3883L21.4557 33.3964L22.7189 30.5276L32.5529 20.9567L36.2828 24.587L26.4479 34.1597ZM21.1243 7.41228C20.7868 7.08287 20.7877 6.54041 21.1296 6.20672L23.6156 3.78705C23.961 3.45164 24.5131 3.45079 24.8542 3.78191L27.3454 6.20672L23.6156 9.8371L21.1243 7.41228ZM47.9645 5.95688L51.6944 9.5864L42.4986 18.537L38.7696 14.9058L47.9645 5.95688ZM52.6279 3.23261C52.6306 3.2309 52.6235 3.2309 52.6306 3.23774L54.488 5.04565C54.4933 5.05079 54.4933 5.04737 54.4933 5.04822L52.0056 7.46876L50.1411 5.654L52.6279 3.23261ZM54.6955 30.4078L43.7424 19.7468L51.0492 12.635L51.7339 13.3023C52.0777 13.6369 52.0777 14.1785 51.7322 14.5147L48.2828 17.8713C47.9399 18.2059 47.9399 18.7475 48.2828 19.0812C48.6265 19.4157 49.1829 19.4157 49.5258 19.0812L52.9752 15.7254C54.0072 14.7209 54.0081 13.0953 52.9778 12.0925L52.2921 11.4251L52.9374 10.7962L54.1804 9.5864L53.2486 8.67945L55.7363 6.25806C56.4263 5.58469 56.4193 4.50576 55.731 3.83496L53.8736 2.02705C53.1782 1.35026 52.0706 1.35539 51.385 2.02277L48.8972 4.44416L47.9645 3.53635L46.7216 4.74619H46.7207V4.74705L37.5266 13.6959L26.0972 2.57207C25.0678 1.571 23.4028 1.57443 22.3726 2.57721L19.8866 4.99688C18.8599 5.99624 18.8537 7.62277 19.8813 8.62212L22.3726 11.0469L22.6099 11.278L23.6156 12.2576L31.31 19.7468L21.236 29.5522L19.3715 33.7875L20.6145 34.9973L18.75 36.8121L19.993 38.0219L21.8575 36.2071L23.1013 37.417L27.4527 35.6022L37.5266 25.7969L47.2358 35.248L48.4788 36.4578L54.8467 37.8884C55.7855 38.0989 56.3833 37.5256 56.1644 36.605L54.6955 30.4078Z" fill="#FC4445"/>
</svg>
