<?xml version="1.0" encoding="utf-8"?>
<!-- Generator: Adobe Illustrator 24.1.2, SVG Export Plug-In . SVG Version: 6.00 Build 0)  -->
<svg version="1.1" id="Layer_1" xmlns="http://www.w3.org/2000/svg" xmlns:xlink="http://www.w3.org/1999/xlink" x="0px" y="0px"
	 viewBox="0 0 50 48" style="enable-background:new 0 0 50 48;" xml:space="preserve">
<style type="text/css">
	.st0{fill-rule:evenodd;clip-rule:evenodd;fill:#FC4445;}
</style>
<g>
	<path class="st0" d="M41.6,44l4.4-4.2l1.3,5.5L41.6,44z M26.7,30.3L25,28.7l-5-4.8l-1.7-1.6L8.1,12.5l5-4.8l10.3,9.8l1.7,1.6l5,4.8
		l1.7,1.6l12.9,12.4l-5,4.8L26.7,30.3z M10.3,42.8l-3.9,1.6l-2.7-2.6l1.7-3.8l13.1-12.6l5,4.8L10.3,42.8z M3.2,7.7
		C2.7,7.3,2.7,6.6,3.1,6.2c0,0,0-0.1,0.1-0.1L6.5,3C7,2.5,7.7,2.5,8.1,3l3.3,3.2l-5,4.8L3.2,7.7z M38.9,5.8l5,4.8L31.7,22.3l-5-4.7
		L38.9,5.8z M45.1,2.2L45.1,2.2l2.5,2.4l0,0l-3.3,3.2l-2.5-2.4L45.1,2.2z M47.9,37.9l-14.6-14l9.7-9.3l0.9,0.9
		c0.4,0.4,0.5,1.1,0.1,1.5c0,0,0,0.1-0.1,0.1l-4.6,4.4c-0.4,0.4-0.5,1.1-0.1,1.5c0,0,0,0.1,0.1,0.1c0.5,0.4,1.2,0.4,1.7,0l4.6-4.4
		c1.3-1.2,1.4-3.2,0.2-4.5c-0.1-0.1-0.2-0.2-0.2-0.3L44.7,13l0.9-0.8l1.7-1.6L46,9.4l3.3-3.2c0.8-0.8,0.9-2.1,0.2-3
		c-0.1-0.1-0.1-0.1-0.2-0.2l-2.5-2.3c-0.9-0.9-2.4-0.9-3.3,0l-3.3,3.2l-1.2-1.2l-1.7,1.6l0,0L25,16L9.8,1.4C8.4,0,6.2,0,4.8,1.4
		L1.5,4.5C0.2,5.7,0.1,7.7,1.3,9.1c0.1,0.1,0.1,0.2,0.2,0.2l3.3,3.2l0.3,0.3l1.3,1.3l10.3,9.8L3.3,36.8l-2.5,5.6l1.7,1.6L0,46.3
		l1.7,1.6l2.5-2.4l1.7,1.6l5.8-2.4L25,31.9l13,12.4l1.7,1.6l8.5,1.9c1.3,0.3,2.1-0.5,1.8-1.7L47.9,37.9z"/>
</g>
</svg>
