<?xml version="1.0" encoding="utf-8"?>
<!-- Generator: Adobe Illustrator 24.1.2, SVG Export Plug-In . SVG Version: 6.00 Build 0)  -->
<svg version="1.1" id="Layer_1" xmlns="http://www.w3.org/2000/svg" xmlns:xlink="http://www.w3.org/1999/xlink" x="0px" y="0px"
	 viewBox="0 0 841.89 595.28" style="enable-background:new 0 0 841.89 595.28;" xml:space="preserve">
<style type="text/css">
	.st0{fill:#EF4136;}
	.st1{fill:#BE1E2D;}
	.st2{fill:#FFFFFF;}
</style>
<g>
	<path class="st0" d="M541.26,297.28v0.71c0,8.64-7,15.64-15.64,15.64h-60.66c-8.64,0-15.64-7-15.64-15.64v-0.71
		c0-8.64,7-15.64,15.64-15.64h60.66C534.26,281.64,541.26,288.64,541.26,297.28z"/>
</g>
<g>
	<path class="st0" d="M539.58,351.19v0.71c0,8.64-7,15.64-15.64,15.64h-60.66c-8.64,0-15.64-7-15.64-15.64v-0.71
		c0-8.64,7-15.64,15.64-15.64h60.66C532.58,335.55,539.58,342.55,539.58,351.19z"/>
</g>
<g>
	<polygon class="st0" points="305,313.64 305,420.87 281.13,420.87 273,412.74 273,313.64 	"/>
	<polygon class="st0" points="307.52,97.48 110,295 87.37,272.37 262.27,97.48 	"/>
	<polygon class="st1" points="281.13,420.87 235.87,420.87 110,295 132.63,272.37 	"/>
	<polygon class="st0" points="420.36,281.64 343.11,313.64 305,313.64 305,281.64 	"/>
	<rect x="273" y="281.64" class="st0" width="32" height="32"/>
	<rect x="198.1" y="281.64" class="st1" width="74.9" height="32"/>
	<polygon class="st0" points="326.46,375.55 371.78,420.87 326.52,420.87 305,399.35 305,351.75 343.11,313.64 420.36,281.64 	"/>
	<polygon class="st2" points="343.11,313.64 305,351.75 305,351.74 	"/>
</g>
<g>
	<path class="st0" d="M539.58,404.51v0.71c0,8.64-7,15.64-15.64,15.64h-60.66c-8.64,0-15.64-7-15.64-15.64v-0.71
		c0-8.64,7-15.64,15.64-15.64h60.66C532.58,388.87,539.58,395.87,539.58,404.51z"/>
</g>
</svg>
