<svg width="52" height="52" viewBox="0 0 52 52" fill="none" xmlns="http://www.w3.org/2000/svg">
<path d="M50.9823 24.985H46.5138V23.0256C46.5138 22.5593 46.1962 22.1529 45.7436 22.0401L42.7362 21.2909L41.1638 17.4966L42.7597 14.8415C43 14.4419 42.9372 13.9299 42.6074 13.6002L38.3993 9.3921C38.0694 9.06232 37.5574 8.99956 37.1579 9.23975L34.5028 10.8357L30.7084 9.26331L29.9592 6.25585C29.8465 5.80328 29.44 5.4857 28.9736 5.4857H27.0146V1.01715C27.0146 0.456221 26.5599 0.00152588 25.999 0.00152588C25.4381 0.00152588 24.9834 0.456221 24.9834 1.01715V5.4857H23.024C22.5576 5.4857 22.1513 5.80328 22.0385 6.25585L21.2892 9.26331L17.495 10.8357L14.8399 9.23975C14.4401 8.99945 13.9283 9.06222 13.5986 9.3921L9.39047 13.6002C9.0607 13.93 8.99793 14.442 9.23812 14.8415L10.8341 17.4966L9.26169 21.2909L6.25422 22.0401C5.80166 22.1528 5.48407 22.5593 5.48407 23.0256V24.985H1.01562C0.454695 24.985 0 25.4397 0 26.0006C0 26.5614 0.454695 27.0162 1.01562 27.0162H5.48417V28.9756C5.48417 29.442 5.80176 29.8484 6.25432 29.961L9.26179 30.7104L10.8342 34.5046L9.23812 37.1597C8.99783 37.5594 9.0607 38.0714 9.39047 38.4012L13.5986 42.6093C13.9284 42.939 14.4404 43.0018 14.8401 42.7616L17.4951 41.1656L21.2894 42.738L22.0387 45.7454C22.1514 46.1979 22.5578 46.5155 23.0242 46.5155H24.9835V50.9841C24.9835 51.5449 25.4382 51.9997 25.9991 51.9997C26.56 51.9997 27.0147 51.5449 27.0147 50.9841V46.5155H28.9741C29.4404 46.5155 29.8468 46.1979 29.9596 45.7454L30.7088 42.738L34.5032 41.1656L37.1582 42.7616C37.5579 43.0018 38.0698 42.939 38.3997 42.6093L42.6078 38.4012C42.9375 38.0714 43.0003 37.5593 42.76 37.1597L41.1641 34.5046L42.7365 30.7104L45.744 29.961C46.1965 29.8484 46.5141 29.442 46.5141 28.9756V27.0162H50.9826C51.5436 27.0162 51.9983 26.5614 51.9983 26.0006C51.998 25.4397 51.5433 24.985 50.9823 24.985ZM44.4826 28.182L41.7485 28.8633C41.4361 28.9411 41.179 29.1625 41.0557 29.4599L39.0913 34.2003C38.968 34.4977 38.9932 34.8361 39.1591 35.1123L40.6101 37.526L37.5243 40.6119L35.1106 39.161C34.8344 38.9949 34.496 38.9697 34.1984 39.0931L29.4581 41.0577C29.1606 41.181 28.9393 41.4379 28.8614 41.7504L28.1802 44.4845H23.8175L23.1363 41.7504C23.0584 41.4379 22.8371 41.181 22.5397 41.0577L17.7993 39.0931C17.5018 38.9697 17.1634 38.9949 16.8872 39.161L14.4735 40.6119L11.3877 37.526L12.8386 35.1123C13.0046 34.8361 13.0297 34.4977 12.9064 34.2003L10.9419 29.4599C10.8186 29.1625 10.5616 28.9411 10.2492 28.8633L7.51512 28.182V23.8193L10.2493 23.1381C10.5617 23.0602 10.8187 22.8389 10.942 22.5414L12.9065 17.8011C13.0298 17.5035 13.0046 17.1651 12.8387 16.889L11.3878 14.4753L14.4736 11.3895L16.8873 12.8404C17.1634 13.0064 17.5018 13.0316 17.7993 12.9082L22.5397 10.9438C22.8371 10.8205 23.0584 10.5634 23.1363 10.251L23.8175 7.51685H28.1802L28.8614 10.251C28.9393 10.5634 29.1606 10.8205 29.4581 10.9438L34.1984 12.9082C34.4961 13.0315 34.8344 13.0063 35.1105 12.8404L37.5242 11.3895L40.61 14.4753L39.159 16.889C38.9931 17.1651 38.968 17.5035 39.0913 17.8011L41.0557 22.5414C41.179 22.8389 41.4361 23.0602 41.7485 23.1381L44.4826 23.8193V28.182Z" fill="#FC4445"/>
<path d="M30.4778 13.793C29.9513 13.6 29.3677 13.87 29.1744 14.3965C28.9812 14.9231 29.2514 15.5066 29.7779 15.6998C34.0781 17.278 36.9672 21.4174 36.9672 26.0001C36.9672 32.0481 32.0468 36.9684 25.9989 36.9684C19.9509 36.9684 15.0306 32.048 15.0306 26C15.0306 21.6637 17.5929 17.7257 21.5581 15.9676C22.0708 15.7404 22.3022 15.1403 22.0748 14.6276C21.8475 14.1149 21.2474 13.8835 20.7348 14.1109C16.0359 16.1942 12.9996 20.861 12.9996 26C12.9996 33.1679 18.8311 38.9995 25.9991 38.9995C33.1671 38.9995 38.9985 33.1679 38.9985 26C38.9985 20.569 35.5742 15.6634 30.4778 13.793Z" fill="#FC4445"/>
<path d="M26.0528 13.0006L25.999 13.0005C25.4381 13.0005 24.9834 13.4552 24.9834 14.0161C24.9834 14.5771 25.4381 15.0318 25.999 15.0318L26.0468 15.0319C26.0478 15.0319 26.0489 15.0319 26.0499 15.0319C26.6094 15.0319 27.0638 14.5791 27.0655 14.0192C27.0671 13.4583 26.6137 13.0022 26.0528 13.0006Z" fill="#FC4445"/>
<path d="M33.0742 21.9599C32.5133 21.9599 32.0586 22.4146 32.0586 22.9756V28.8951C32.0586 29.4559 32.5133 29.9107 33.0742 29.9107C33.6352 29.9107 34.0899 29.4559 34.0899 28.8951V22.9755C34.0899 22.4145 33.6352 21.9599 33.0742 21.9599Z" fill="#FC4445"/>
<path d="M28.1491 21.9599H26.0567C25.4957 21.9599 25.041 22.4146 25.041 22.9756V25.0005V26.3859V28.895C25.041 29.4559 25.4957 29.9107 26.0567 29.9107C26.6176 29.9107 27.0723 29.4559 27.0723 28.895V27.4015H28.1492C29.566 27.4015 30.7187 26.2487 30.7187 24.832V24.5295C30.7186 23.1126 29.566 21.9599 28.1491 21.9599ZM28.6874 24.8319C28.6874 25.1288 28.4459 25.3703 28.1491 25.3703H27.0722V25.0004V23.991H28.1491C28.4459 23.991 28.6874 24.2325 28.6874 24.5294V24.8319Z" fill="#FC4445"/>
<path d="M23.9532 28.65L21.3465 22.5751C21.1864 22.2018 20.8194 21.9598 20.4132 21.9598C20.0071 21.9598 19.6401 22.2018 19.4799 22.575L16.8732 28.6499C16.652 29.1653 16.8906 29.7625 17.4061 29.9836C17.9216 30.2047 18.5187 29.9662 18.7399 29.4508L20.4132 25.5509L22.0867 29.4508C22.2518 29.8357 22.6266 30.0663 23.0205 30.0663C23.154 30.0663 23.2899 30.0396 23.4204 29.9837C23.9358 29.7626 24.1744 29.1654 23.9532 28.65Z" fill="#FC4445"/>
<path d="M48.547 0.00100708C46.643 0.00100708 45.094 1.54994 45.094 3.45403C45.094 4.03659 45.2395 4.58554 45.4953 5.06725L41.6096 8.95283C41.213 9.34943 41.213 9.99252 41.6096 10.3891C41.808 10.5874 42.068 10.6865 42.3279 10.6865C42.5878 10.6865 42.8478 10.5874 43.046 10.389L46.9309 6.50415C47.4134 6.7608 47.9634 6.90695 48.5469 6.90695C50.4509 6.90695 51.9999 5.35802 51.9999 3.45393C51.9999 1.54984 50.4511 0.00100708 48.547 0.00100708ZM48.547 4.8758C47.7629 4.8758 47.1252 4.23799 47.1252 3.45403C47.1252 2.66997 47.763 2.03226 48.547 2.03226C49.331 2.03226 49.9687 2.67007 49.9687 3.45403C49.9689 4.23799 49.331 4.8758 48.547 4.8758Z" fill="#FC4445"/>
<path d="M10.3881 41.6107C9.99152 41.2143 9.34842 41.2143 8.95192 41.6108L5.06766 45.495C4.58545 45.2388 4.03599 45.0929 3.45302 45.0929C1.54893 45.093 0 46.642 0 48.546C0 50.45 1.54893 51.999 3.45302 51.999C5.35712 51.999 6.90605 50.4501 6.90605 48.546C6.90605 47.9629 6.7602 47.4134 6.50396 46.9313L10.3882 43.047C10.7847 42.6505 10.7847 42.0074 10.3881 41.6107ZM3.45302 49.9678C2.66896 49.9678 2.03125 49.33 2.03125 48.5461C2.03125 47.762 2.66906 47.1243 3.45302 47.1243C4.23709 47.1243 4.8748 47.7621 4.8748 48.5461C4.8748 49.33 4.23698 49.9678 3.45302 49.9678Z" fill="#FC4445"/>
<path d="M43.0465 41.6106C42.8566 41.4217 42.5946 41.313 42.3275 41.313C42.0604 41.313 41.7983 41.4216 41.6094 41.6106C41.4205 41.7994 41.3119 42.0614 41.3119 42.3286C41.3119 42.5957 41.4205 42.8578 41.6094 43.0466C41.7983 43.2355 42.0604 43.3442 42.3275 43.3442C42.5956 43.3442 42.8566 43.2356 43.0465 43.0466C43.2355 42.8578 43.3431 42.5966 43.3431 42.3286C43.3431 42.0614 43.2355 41.7994 43.0465 41.6106Z" fill="#FC4445"/>
<path d="M48.547 45.093C47.9634 45.093 47.4134 45.2391 46.931 45.4958L45.2152 43.78C44.8186 43.3836 44.1755 43.3835 43.779 43.78C43.3824 44.1766 43.3823 44.8197 43.779 45.2163L45.4954 46.9328C45.2397 47.4148 45.0941 47.9637 45.0941 48.5461C45.0941 50.45 46.643 51.9991 48.5471 51.9991C50.4512 51.9991 52 50.4501 52 48.5461C52 46.642 50.4511 45.093 48.547 45.093ZM48.547 49.9678C47.7629 49.9678 47.1252 49.33 47.1252 48.5461C47.1252 47.762 47.763 47.1243 48.547 47.1243C49.331 47.1243 49.9688 47.7621 49.9688 48.5461C49.9689 49.33 49.331 49.9678 48.547 49.9678Z" fill="#FC4445"/>
<path d="M10.3881 8.95386L6.50396 5.06971C6.7602 4.58749 6.90605 4.03804 6.90605 3.45507C6.90605 1.55108 5.35712 0.00204468 3.45302 0.00204468C1.54893 0.00204468 0 1.55097 0 3.45507C0 5.35916 1.54893 6.90809 3.45302 6.90809C4.03609 6.90809 4.58555 6.76225 5.06766 6.50601L8.95192 10.3902C9.15027 10.5885 9.41017 10.6876 9.67007 10.6876C9.92997 10.6876 10.19 10.5885 10.3882 10.3902C10.7847 9.99356 10.7847 9.35047 10.3881 8.95386ZM3.45302 4.87684C2.66896 4.87684 2.03125 4.23903 2.03125 3.45507C2.03125 2.67101 2.66906 2.03329 3.45302 2.03329C4.23709 2.03329 4.8748 2.67111 4.8748 3.45507C4.8748 4.23903 4.23698 4.87684 3.45302 4.87684Z" fill="#FC4445"/>
</svg>
